<svg xmlns="http://www.w3.org/2000/svg" width="24" height="24" viewBox="0 0 24 24">
  <path fill="currentColor" d="M18.326 9.2057c-.5061-.8327-1.1882-1.5454-2.001-2.0916-.8127-.5462-1.7365-.915-2.7119-1.0826a6.7867 6.7867 0 0 0-2.9156.0944 6.6868 6.6868 0 0 0-2.6347 1.3547 6.5282 6.5282 0 0 0-1.794 2.3707 6.358 6.358 0 0 0-.552 2.8568c.0476 1.0008.3104 1.979.773 2.8733a6.5548 6.5548 0 0 0 1.9388 2.2565 6.7303 6.7303 0 0 0 2.7204 1.2367 6.8252 6.8252 0 0 0 2.9698-.0157 6.733 6.733 0 0 0 2.6853-1.3079l-1.7227-2.3025a3.9443 3.9443 0 0 1-2.4856 1.0332 3.996 3.996 0 0 1-2.5616-.5916 3.8667 3.8667 0 0 1-1.6063-2.0328 3.7687 3.7687 0 0 1-.1329-2.5682 3.8427 3.8427 0 0 1 1.4247-2.1393 3.9746 3.9746 0 0 1 2.451-.8653 4.0102 4.0102 0 0 1 2.5127.6867l1.6438-2.2182z"/>
</svg>
