<svg xmlns="http://www.w3.org/2000/svg" width="24" height="24" viewBox="0 0 24 24">
  <path fill="currentColor" d="M12.252.004a11.78 11.768 0 0 0-8.92 3.73 11 10.999 0 0 0-2.17 3.11 11.37 11.359 0 0 0-1.16 5.169c0 1.42.17 2.5.6 3.77.24.759.77 1.899 1.17 2.529a12.3 12.298 0 0 0 8.85 5.639c.44.05 2.54.07 2.76.02.2-.04.22.1-.26-1.7l-.36-1.37-1.01-.06a8.5 8.489 0 0 1-5.18-1.8 5.34 5.34 0 0 1-1.3-1.26c0-.05.34-.28.74-.5a37.572 37.572 0 0 1 2.88-1.54c.03 0 .07.94.09 2.13l.04 2.17.22-.04c.2-.04.22-.1.22-1.06 0-.57-.02-1.17-.04-1.33l-.04-.31-.2-.04c-.2-.04-.21-.08-.24-.52-.02-.42-.04-.48-.2-.52-.1-.03-.18-.08-.18-.12s.36-.17.87-.33c.86-.27 1.37-.37 2.65-.52l.53-.06v2.63c0 2.96 0 2.94.48 2.94.25 0 .3-.02.37-.17.05-.1.08-1.15.08-2.75v-2.6l.75.07c.94.1 1.88.26 2.63.45l.32.08-.04.24c-.02.13-.05.63-.07 1.11-.04.89-.02 1.18.12 1.32.08.08.13.08.3-.01.12-.07.2-.2.24-.38.03-.14.03-.63 0-1.08-.06-.92-.12-1-.82-1.16a16.08 16.08 0 0 0-4.86-.53c-1.06.04-2.09.13-2.97.27-1.05.16-2.1.4-2.87.65-.47.16-.53.16-.63.03-.06-.08-.21-.12-.4-.12-.33 0-.48.08-.61.32l-.08.15.33-.08c.18-.04.47-.07.64-.07.3 0 .32.01.48.3.15.27.19.3.56.38.22.05.68.11 1.02.14l.61.05-.9.48a27.487 27.487 0 0 0-2.62 1.55c-.73.49-.75.5-.9.36-.08-.08-.15-.28-.15-.44 0-.43-.11-.77-.3-.93-.14-.12-.18-.12-.35-.01-.1.07-.2.2-.22.3-.03.14-.07.17-.23.14-.15-.03-.2-.01-.23.1-.03.1.04.26.21.47l.25.32-.2.25c-.16.2-.19.29-.15.44.05.15.01.21-.21.34l-.28.17.23.15c.12.08.33.33.45.55.24.42.24.42.56.42.28 0 .35-.03.56-.28a4.96 4.96 0 0 0 .75-1.21l.18-.4.37.27c.84.62 1.87 1.16 2.9 1.52.76.27 1.7.51 2.28.58l.44.05.35 1.37c.19.75.36 1.44.37 1.53.02.1.02.2 0 .22-.14.17-2.5.14-3.4-.04a10.87 10.859 0 0 1-4.29-1.68 10.202 10.192 0 0 1-3.12-3.4 10.96 10.949 0 0 1-1.33-4.08c-.1-.74-.12-2.48-.04-3.22a10.37 10.359 0 0 1 2.92-6.16A10.93 10.919 0 0 1 8.63.86c.79-.25 1.96-.49 2.77-.57.42-.04 1.92-.03 2.39.01a11.39 11.379 0 0 1 6.29 2.51 10.56 10.549 0 0 1 2.75 3.37c.11.22.21.42.23.44.02.03.32-.3.69-.74.36-.43.74-.87.84-.97l.18-.18-.32-.49a12.1 12.088 0 0 0-4.06-3.75A11.92 11.908 0 0 0 12.25 0z"/>
</svg>
