<?xml version="1.0" encoding="UTF-8"?>
<svg id="Layer_1" data-name="Layer 1" xmlns="http://www.w3.org/2000/svg" viewBox="0 0 32 32">
  <defs>
    <style>
      .cls-1 {
        fill: #fff;
      }

      .cls-2 {
        fill: #1d2d41;
      }
    </style>
  </defs>
  <path class="cls-2" d="M32,0v32H0V0h32ZM31.5,9.5H13v4l-.54-2.83c-.21-.65-1.18-.38-1.71-.42v2.13s-.25.87-.25.87l-.25-2.75H.5c2.38,2.33,5.95,5.37,9.38,5.75,1.62.18,4.47-.47,4.62,2.15.12,2.21-2.14,1.93-3.13,2.59s-2.05,2.64-1.58,3.85c.26.8,2.98.25,3.72.41.07-.68-.18-1.64.12-2.25.13-.26,2.04-1.62,1.88-1.12l-1.5,2.63c2.69-1.41,5.79-1.29,8.5,0l-1.75-3,1.87,1.25.4,2.47,3.22.03c-.1-.82.21-2-.13-2.75-.04-.1-1.27-1.58-1.37-1.63-1.37-.67-3.02.3-3.44-2.31-.39-2.41,1.31-4.44,3.27-5.61,1.11-.67,2.52-.89,3.42-1.7-2.97-.02-5.91-.13-8.88-.25-.31-.01-.93.19-.87-.25h13.25v-1.25Z"/>
  <path class="cls-1" d="M31.5,9.5v1.25h-13.25c-.06.44.57.24.87.25,2.97.12,5.91.23,8.88.25-.91.81-2.31,1.03-3.42,1.7-1.95,1.17-3.65,3.2-3.27,5.61.42,2.61,2.07,1.63,3.44,2.31.1.05,1.32,1.53,1.37,1.63.34.75.03,1.92.13,2.75l-3.22-.03-.4-2.47-1.87-1.25,1.75,3c-2.71-1.29-5.81-1.41-8.5,0l1.5-2.63c.16-.49-1.75.86-1.88,1.12-.3.62-.05,1.57-.12,2.25-.73-.16-3.45.39-3.72-.41-.47-1.21.6-3.2,1.58-3.85s3.26-.38,3.13-2.59c-.15-2.62-3-1.97-4.62-2.15-3.43-.38-7-3.41-9.38-5.75h9.75l.25,2.75.25-.87v-2.13c.53.04,1.49-.23,1.71.42l.54,2.83v-4h18.5Z"/>
</svg>